<svg width="378" height="40" viewBox="0 0 378 40" fill="none" xmlns="http://www.w3.org/2000/svg">
<path d="M2.5 35H37.5V37.5H2.5V35ZM33.75 13.75C34.0815 13.75 34.3995 13.6183 34.6339 13.3839C34.8683 13.1495 35 12.8315 35 12.5V8.74999C34.9999 8.49309 34.9206 8.24248 34.773 8.03223C34.6254 7.82199 34.4166 7.66233 34.175 7.57499L20.425 2.57499C20.1504 2.4757 19.8496 2.4757 19.575 2.57499L5.825 7.57499C5.58341 7.66233 5.3746 7.82199 5.22698 8.03223C5.07937 8.24248 5.00011 8.49309 5 8.74999V12.5C5 12.8315 5.1317 13.1495 5.36612 13.3839C5.60054 13.6183 5.91848 13.75 6.25 13.75H7.5V30H5V32.5H35V30H32.5V13.75H33.75ZM7.5 9.62499L20 5.07499L32.5 9.62499V11.25H7.5V9.62499ZM22.5 30H17.5V13.75H22.5V30ZM10 13.75H15V30H10V13.75ZM30 30H25V13.75H30V30Z" fill="#F8F8F8"/>
<path d="M58.688 30.154C57.6613 30.154 56.7373 29.978 55.916 29.626C55.0947 29.2593 54.4493 28.746 53.98 28.086C53.5107 27.426 53.276 26.656 53.276 25.776H55.96C56.0187 26.436 56.2753 26.9787 56.73 27.404C57.1993 27.8293 57.852 28.042 58.688 28.042C59.5533 28.042 60.228 27.8367 60.712 27.426C61.196 27.0007 61.438 26.458 61.438 25.798C61.438 25.2847 61.284 24.8667 60.976 24.544C60.6827 24.2213 60.3087 23.972 59.854 23.796C59.414 23.62 58.798 23.4293 58.006 23.224C57.0087 22.96 56.1947 22.696 55.564 22.432C54.948 22.1533 54.42 21.728 53.98 21.156C53.54 20.584 53.32 19.8213 53.32 18.868C53.32 17.988 53.54 17.218 53.98 16.558C54.42 15.898 55.036 15.392 55.828 15.04C56.62 14.688 57.5367 14.512 58.578 14.512C60.0593 14.512 61.2693 14.886 62.208 15.634C63.1613 16.3673 63.6893 17.3793 63.792 18.67H61.02C60.976 18.1127 60.712 17.636 60.228 17.24C59.744 16.844 59.106 16.646 58.314 16.646C57.5953 16.646 57.0087 16.8293 56.554 17.196C56.0993 17.5627 55.872 18.0907 55.872 18.78C55.872 19.2493 56.0113 19.638 56.29 19.946C56.5833 20.2393 56.95 20.474 57.39 20.65C57.83 20.826 58.4313 21.0167 59.194 21.222C60.206 21.5007 61.0273 21.7793 61.658 22.058C62.3033 22.3367 62.846 22.7693 63.286 23.356C63.7407 23.928 63.968 24.698 63.968 25.666C63.968 26.4433 63.7553 27.1767 63.33 27.866C62.9193 28.5553 62.3107 29.1127 61.504 29.538C60.712 29.9487 59.7733 30.154 58.688 30.154ZM78.5373 23.642C78.5373 24.0967 78.508 24.5073 78.4493 24.874H69.1873C69.2607 25.842 69.62 26.6193 70.2653 27.206C70.9107 27.7927 71.7027 28.086 72.6413 28.086C73.9907 28.086 74.944 27.5213 75.5013 26.392H78.2073C77.8407 27.5067 77.1733 28.4233 76.2053 29.142C75.252 29.846 74.064 30.198 72.6413 30.198C71.4827 30.198 70.4413 29.9413 69.5173 29.428C68.608 28.9 67.8893 28.1667 67.3613 27.228C66.848 26.2747 66.5913 25.1747 66.5913 23.928C66.5913 22.6813 66.8407 21.5887 67.3393 20.65C67.8527 19.6967 68.564 18.9633 69.4733 18.45C70.3973 17.9367 71.4533 17.68 72.6413 17.68C73.7853 17.68 74.8047 17.9293 75.6993 18.428C76.594 18.9267 77.2907 19.6307 77.7893 20.54C78.288 21.4347 78.5373 22.4687 78.5373 23.642ZM75.9193 22.85C75.9047 21.926 75.5747 21.1853 74.9293 20.628C74.284 20.0707 73.4847 19.792 72.5313 19.792C71.666 19.792 70.9253 20.0707 70.3093 20.628C69.6933 21.1707 69.3267 21.9113 69.2093 22.85H75.9193ZM92.4835 17.878V30H89.9755V28.57C89.5795 29.0687 89.0588 29.4647 88.4135 29.758C87.7828 30.0367 87.1081 30.176 86.3895 30.176C85.4361 30.176 84.5781 29.978 83.8155 29.582C83.0675 29.186 82.4735 28.5993 82.0335 27.822C81.6081 27.0447 81.3955 26.106 81.3955 25.006V17.878H83.8815V24.632C83.8815 25.7173 84.1528 26.5533 84.6955 27.14C85.2381 27.712 85.9788 27.998 86.9175 27.998C87.8561 27.998 88.5968 27.712 89.1395 27.14C89.6968 26.5533 89.9755 25.7173 89.9755 24.632V17.878H92.4835ZM118.611 14.71V30H116.103V19.528L111.439 30H109.701L105.015 19.528V30H102.507V14.71H105.213L110.581 26.7L115.927 14.71H118.611ZM123.684 16.272C123.229 16.272 122.848 16.118 122.54 15.81C122.232 15.502 122.078 15.1207 122.078 14.666C122.078 14.2113 122.232 13.83 122.54 13.522C122.848 13.214 123.229 13.06 123.684 13.06C124.124 13.06 124.498 13.214 124.806 13.522C125.114 13.83 125.268 14.2113 125.268 14.666C125.268 15.1207 125.114 15.502 124.806 15.81C124.498 16.118 124.124 16.272 123.684 16.272ZM124.916 17.878V30H122.408V17.878H124.916ZM131.217 13.72V30H128.709V13.72H131.217ZM141.279 17.68C142.203 17.68 143.025 17.878 143.743 18.274C144.477 18.67 145.049 19.2567 145.459 20.034C145.885 20.8113 146.097 21.75 146.097 22.85V30H143.611V23.224C143.611 22.1387 143.34 21.31 142.797 20.738C142.255 20.1513 141.514 19.858 140.575 19.858C139.637 19.858 138.889 20.1513 138.331 20.738C137.789 21.31 137.517 22.1387 137.517 23.224V30H135.009V13.72H137.517V19.286C137.943 18.7727 138.478 18.3767 139.123 18.098C139.783 17.8193 140.502 17.68 141.279 17.68ZM148.96 23.884C148.96 22.6667 149.21 21.5887 149.708 20.65C150.222 19.7113 150.911 18.9853 151.776 18.472C152.656 17.944 153.624 17.68 154.68 17.68C155.634 17.68 156.462 17.8707 157.166 18.252C157.885 18.6187 158.457 19.0807 158.882 19.638V17.878H161.412V30H158.882V28.196C158.457 28.768 157.878 29.2447 157.144 29.626C156.411 30.0073 155.575 30.198 154.636 30.198C153.595 30.198 152.642 29.934 151.776 29.406C150.911 28.8633 150.222 28.1153 149.708 27.162C149.21 26.194 148.96 25.1013 148.96 23.884ZM158.882 23.928C158.882 23.092 158.706 22.366 158.354 21.75C158.017 21.134 157.57 20.6647 157.012 20.342C156.455 20.0193 155.854 19.858 155.208 19.858C154.563 19.858 153.962 20.0193 153.404 20.342C152.847 20.65 152.392 21.112 152.04 21.728C151.703 22.3293 151.534 23.048 151.534 23.884C151.534 24.72 151.703 25.4533 152.04 26.084C152.392 26.7147 152.847 27.1987 153.404 27.536C153.976 27.8587 154.578 28.02 155.208 28.02C155.854 28.02 156.455 27.8587 157.012 27.536C157.57 27.2133 158.017 26.744 158.354 26.128C158.706 25.4973 158.882 24.764 158.882 23.928ZM152.018 16.624C152.136 15.7733 152.414 15.1353 152.854 14.71C153.294 14.27 153.844 14.05 154.504 14.05C154.783 14.05 155.025 14.094 155.23 14.182C155.436 14.27 155.685 14.402 155.978 14.578C156.198 14.7247 156.382 14.8347 156.528 14.908C156.69 14.9813 156.866 15.018 157.056 15.018C157.306 15.018 157.511 14.9447 157.672 14.798C157.848 14.6367 157.958 14.402 158.002 14.094H159.41C159.293 14.9447 159.014 15.59 158.574 16.03C158.134 16.4553 157.584 16.668 156.924 16.668C156.646 16.668 156.396 16.624 156.176 16.536C155.956 16.4333 155.714 16.294 155.45 16.118C155.186 15.9567 154.981 15.8467 154.834 15.788C154.702 15.7147 154.548 15.678 154.372 15.678C154.123 15.678 153.91 15.7587 153.734 15.92C153.573 16.0813 153.47 16.316 153.426 16.624H152.018ZM170.465 30.198C169.321 30.198 168.287 29.9413 167.363 29.428C166.439 28.9 165.713 28.1667 165.185 27.228C164.657 26.2747 164.393 25.1747 164.393 23.928C164.393 22.696 164.664 21.6033 165.207 20.65C165.749 19.6967 166.49 18.9633 167.429 18.45C168.367 17.9367 169.416 17.68 170.575 17.68C171.733 17.68 172.782 17.9367 173.721 18.45C174.659 18.9633 175.4 19.6967 175.943 20.65C176.485 21.6033 176.757 22.696 176.757 23.928C176.757 25.16 176.478 26.2527 175.921 27.206C175.363 28.1593 174.601 28.9 173.633 29.428C172.679 29.9413 171.623 30.198 170.465 30.198ZM170.465 28.02C171.11 28.02 171.711 27.866 172.269 27.558C172.841 27.25 173.303 26.788 173.655 26.172C174.007 25.556 174.183 24.808 174.183 23.928C174.183 23.048 174.014 22.3073 173.677 21.706C173.339 21.09 172.892 20.628 172.335 20.32C171.777 20.012 171.176 19.858 170.531 19.858C169.885 19.858 169.284 20.012 168.727 20.32C168.184 20.628 167.751 21.09 167.429 21.706C167.106 22.3073 166.945 23.048 166.945 23.928C166.945 25.2333 167.275 26.2453 167.935 26.964C168.609 27.668 169.453 28.02 170.465 28.02Z" fill="white"/>
</svg>
